#define selection.xbm_width 18
#define selection.xbm_height 18
static unsigned char selection.xbm_bits[] = {
   0x00, 0x00, 0x00, 0xf0, 0x1f, 0x00, 0xe0, 0x0f, 0x00, 0xc0, 0x07, 0x00,
   0x80, 0x83, 0x00, 0x00, 0xc1, 0x01, 0x3e, 0xe0, 0x03, 0x3e, 0xc0, 0x01,
   0x3e, 0x80, 0x00, 0x3e, 0x00, 0x00, 0x3e, 0x0e, 0x00, 0x00, 0x1f, 0x00,
   0x80, 0x3f, 0x00, 0x80, 0x3f, 0x00, 0x80, 0x3f, 0x00, 0x00, 0x1f, 0x00,
   0x00, 0x0e, 0x00, 0x00, 0x00, 0x00};
